<svg width="31" height="31" viewBox="0 0 31 31" fill="none" xmlns="http://www.w3.org/2000/svg">
<path d="M27.1253 25.8334H8.00859C6.56178 25.8334 5.83784 25.8333 5.28524 25.5518C4.79915 25.3041 4.40424 24.909 4.15657 24.4229C3.875 23.8703 3.875 23.1468 3.875 21.7V6.45837M27.125 9.04171L19.5743 15.6485C18.67 16.4398 18.2178 16.8355 17.7226 16.9997C17.1385 17.1934 16.5043 17.1723 15.9344 16.9401C15.4513 16.7433 15.0267 16.3185 14.177 15.4689C13.3458 14.6377 12.9302 14.2221 12.4563 14.0255C11.8972 13.7935 11.2746 13.7652 10.6968 13.9455C10.207 14.0984 9.75534 14.4747 8.8523 15.2273L3.875 19.375" stroke="#CE5D30" stroke-width="2" stroke-linecap="round" stroke-linejoin="round"/>
</svg>
