<svg width="31" height="31" viewBox="0 0 31 31" fill="none" xmlns="http://www.w3.org/2000/svg">
<path d="M6.13276 9.87513L5.70653 14.5636L5.70525 14.5777C5.64167 15.277 5.60969 15.6288 5.66779 15.963C5.71962 16.2611 5.82295 16.5478 5.97394 16.81C6.14338 17.1041 6.39371 17.3544 6.89111 17.8518L6.89981 17.8605L13.5683 24.5291L13.5744 24.5351C14.5934 25.5541 15.1033 26.064 15.6919 26.2553C16.2108 26.4239 16.7698 26.4239 17.2886 26.2553C17.8785 26.0636 18.391 25.552 19.4141 24.529L24.5288 19.4143C25.5519 18.3912 26.0623 17.8798 26.254 17.2899C26.4226 16.7711 26.4226 16.2122 26.254 15.6934C26.0623 15.1035 25.5516 14.592 24.5286 13.569L17.8601 6.90045C17.3569 6.39726 17.1052 6.14564 16.8093 5.97522C16.5472 5.82422 16.2603 5.72042 15.9622 5.66859C15.6258 5.6101 15.2714 5.64227 14.5627 5.7067L9.87417 6.13293L9.87302 6.13303C8.65347 6.2439 8.04317 6.29938 7.56582 6.56483C7.14483 6.79893 6.79766 7.14611 6.56355 7.5671C6.29938 8.04215 6.24426 8.64857 6.13446 9.85645L6.13276 9.87513Z" stroke="#E6C54A" stroke-width="2" stroke-linecap="round" stroke-linejoin="round"/>
</svg>
